<?xml version="1.0" standalone="no"?>
<!DOCTYPE svg PUBLIC "-//W3C//DTD SVG 20010904//EN"
 "http://www.w3.org/TR/2001/REC-SVG-20010904/DTD/svg10.dtd">
<svg version="1.0" xmlns="http://www.w3.org/2000/svg"
 width="470.000000pt" height="470.000000pt" viewBox="0 0 470.000000 470.000000"
 preserveAspectRatio="xMidYMid meet">
<metadata>
Created by potrace 1.14, written by Peter Selinger 2001-2017
</metadata>
<g transform="translate(0.000000,470.000000) scale(0.100000,-0.100000)"
fill="#000000" stroke="none">
<path d="M1944 4453 c-11 -107 3 -316 30 -438 49 -224 146 -455 245 -583 57
-73 56 -73 67 70 18 232 -61 576 -188 820 -45 87 -122 198 -137 198 -5 0 -13
-30 -17 -67z"/>
<path d="M2687 4461 c-171 -231 -295 -670 -273 -959 11 -143 10 -143 67 -70
99 128 196 359 245 583 37 167 46 505 13 505 -5 0 -28 -26 -52 -59z"/>
<path d="M1280 4135 c0 -17 54 -135 86 -188 126 -210 315 -404 528 -542 79
-52 222 -122 231 -113 7 6 -54 136 -94 202 -129 214 -374 452 -583 569 -66 37
-168 80 -168 72z"/>
<path d="M3359 4115 c-286 -116 -635 -463 -759 -754 -16 -36 -27 -67 -25 -69
9 -9 152 61 231 113 213 138 402 332 528 542 36 60 90 182 84 188 -2 2 -28 -7
-59 -20z"/>
<path d="M948 3471 c-26 -4 -50 -9 -53 -13 -10 -10 108 -91 210 -145 116 -60
294 -122 445 -154 86 -19 138 -23 287 -23 125 -1 186 3 194 11 8 8 -7 24 -62
63 -149 104 -379 196 -604 240 -117 23 -336 34 -417 21z"/>
<path d="M3480 3474 c-278 -35 -569 -138 -749 -264 -55 -39 -70 -55 -62 -63 8
-8 69 -12 194 -11 149 0 201 4 287 23 228 48 468 148 603 251 48 36 56 45 42
53 -18 9 -258 18 -315 11z"/>
<path d="M2289 3257 c-118 -44 -170 -163 -120 -273 18 -40 84 -104 107 -104
17 0 21 -26 35 -195 19 -243 -1 -557 -51 -801 -135 -660 -483 -1183 -1026
-1542 -72 -48 -140 -93 -153 -100 -30 -17 -26 -66 6 -70 45 -7 355 209 517
360 l80 74 70 -71 c75 -75 131 -108 218 -126 144 -31 312 41 409 175 28 38 28
39 11 68 -25 43 -112 122 -160 147 -120 61 -230 63 -365 6 -11 -5 3 20 33 61
178 237 324 553 404 872 64 257 79 389 80 707 1 154 -2 312 -6 351 l-8 72 33
6 c44 8 106 61 128 110 30 67 21 146 -24 207 -43 60 -149 92 -218 66z"/>
<path d="M1740 2999 c-281 -19 -627 -142 -809 -288 l-44 -35 29 -9 c57 -16
303 -10 426 12 154 27 346 90 477 157 100 51 221 131 221 146 0 6 -53 14 -150
20 -25 2 -92 0 -150 -3z"/>
<path d="M2757 2998 c-49 -3 -91 -9 -95 -12 -7 -8 13 -24 100 -82 150 -100
383 -188 596 -225 123 -22 369 -28 426 -12 l29 9 -44 36 c-116 93 -323 187
-524 238 -181 46 -328 61 -488 48z"/>
<path d="M2021 2800 c-275 -133 -581 -442 -706 -712 -19 -42 -35 -79 -35 -82
0 -26 180 64 301 150 110 78 308 277 388 389 61 86 151 254 151 282 0 19 -8
17 -99 -27z"/>
<path d="M2580 2827 c0 -28 89 -195 151 -282 80 -112 278 -311 388 -389 121
-86 301 -176 301 -150 0 3 -16 40 -35 82 -122 263 -424 571 -690 704 -92 46
-115 53 -115 35z"/>
<path d="M2423 2723 c-4 -21 -8 -101 -7 -178 1 -226 60 -473 164 -690 48 -100
143 -245 159 -245 16 0 24 128 18 265 -10 210 -64 424 -157 622 -43 90 -139
245 -161 259 -4 2 -12 -12 -16 -33z"/>
<path d="M2192 2662 c-138 -205 -237 -515 -249 -782 -6 -126 3 -270 18 -270
17 0 111 146 159 245 81 170 138 368 159 560 8 69 7 112 -5 199 -8 61 -19 114
-22 118 -4 4 -31 -27 -60 -70z"/>
</g>
</svg>
